# xmcd
#
# Track frame offsets: 
#        150
#        20332
#        36962
#        53295
#        72772
#        88095
#        107770
#        125835
#        147065
#        170617
#        192575
#        230937
#        244352
#        251917
#        272772
#
# Disc length: 3900 seconds
#
# Revision: 2
# Processed by: cddbd v1.5.2PL0 Copyright (c) Steve Scherf et al.
# Submitted via: ExactAudioCopy v1.0b3
#
DISCID=e00f3a0f
DTITLE=Claudio Fasoli - Résumé
DYEAR=2000
DGENRE=Jazz
TTITLE0=Afternoons
TTITLE1=Wiechmann
TTITLE2=Self Portrait
TTITLE3=20121
TTITLE4=Invisible Sound
TTITLE5=Venezia
TTITLE6=Belly
TTITLE7=Icon
TTITLE8=Difference Of Emphasis
TTITLE9=Flight
TTITLE10=Questions
TTITLE11=Triangle
TTITLE12=Surfaces
TTITLE13=Resume
TTITLE14=Turmpet Trampt
EXTD=YEAR: 2000
EXTT0=
EXTT1=
EXTT2=
EXTT3=
EXTT4=
EXTT5=
EXTT6=
EXTT7=
EXTT8=
EXTT9=
EXTT10=
EXTT11=
EXTT12=
EXTT13=
EXTT14=
PLAYORDER=
